<svg width="25" height="24" viewBox="0 0 25 24" fill="none" xmlns="http://www.w3.org/2000/svg">
<path fill-rule="evenodd" clip-rule="evenodd" d="M12.6335 2C7.04619 2 2.49976 5.72722 2.49976 10.3086C2.49976 14.4158 6.10497 17.8555 10.9749 18.506C11.3049 18.5778 11.7541 18.7258 11.8677 19.0108C11.9699 19.2697 11.9345 19.6752 11.9004 19.9366C11.9004 19.9366 11.7815 20.6591 11.7558 20.8129L11.7519 20.8357C11.7038 21.1129 11.5824 21.8125 12.6335 21.3649C13.7152 20.9044 18.4697 17.893 20.5958 15.4205C22.064 13.7934 22.7675 12.1422 22.7675 10.3086C22.7675 5.72722 18.2216 2 12.6335 2ZM9.81603 8.13254C9.70806 8.13254 9.62029 8.22474 9.62029 8.33802V12.9441C9.62029 13.0576 9.70806 13.1496 9.81603 13.1496H10.5203C10.6283 13.1496 10.7158 13.0576 10.7158 12.9441V8.33802C10.7158 8.22474 10.6283 8.13254 10.5203 8.13254H9.81603ZM14.6988 8.13254H15.4402C15.5541 8.13254 15.6461 8.22474 15.6461 8.33802V12.9441C15.6461 13.0576 15.5541 13.1496 15.4402 13.1496H14.6988C14.6806 13.1496 14.663 13.147 14.6462 13.1425L14.6451 13.1422C14.6445 13.1421 14.6438 13.1419 14.6431 13.1419C14.6385 13.1405 14.634 13.139 14.6291 13.1372L14.6246 13.1356L14.6231 13.135L14.6195 13.1335L14.6129 13.1307L14.6099 13.1294C14.6076 13.1283 14.6053 13.1271 14.6032 13.1259L14.6017 13.1251L14.5973 13.1228C14.5931 13.1204 14.5888 13.1178 14.5846 13.1151L14.5825 13.1135C14.5629 13.1001 14.5448 13.0833 14.5303 13.0627L12.4172 10.2084V12.9441C12.4172 13.0576 12.325 13.1496 12.2111 13.1496H11.4699C11.3563 13.1496 11.2639 13.0576 11.2639 12.9441V8.33802C11.2639 8.22474 11.3563 8.13254 11.4699 8.13254H12.2111C12.2137 8.13254 12.2158 8.13294 12.2184 8.13294C12.222 8.13315 12.2255 8.13315 12.2289 8.13355L12.2317 8.13383L12.2365 8.13437L12.2399 8.13497C12.2427 8.13517 12.2457 8.13558 12.2486 8.13598L12.2603 8.13862L12.2637 8.13958L12.2674 8.14064C12.2717 8.14166 12.2757 8.14307 12.2798 8.14449L12.2865 8.14692C12.2905 8.14834 12.2944 8.15017 12.2982 8.15199C12.2996 8.1525 12.3009 8.15316 12.3023 8.15384L12.3047 8.15503L12.3102 8.15802L12.3157 8.16131C12.3179 8.16233 12.3199 8.16354 12.3219 8.16496C12.3242 8.16633 12.3263 8.16785 12.3285 8.16938L12.3327 8.17226L12.3341 8.17336L12.3341 8.17337C12.3349 8.17396 12.3357 8.17455 12.3365 8.17519C12.337 8.1756 12.3375 8.17604 12.3379 8.17651C12.3418 8.17935 12.3454 8.18239 12.3489 8.18563L12.3527 8.18907C12.357 8.19313 12.361 8.19718 12.3651 8.20184L12.3665 8.20306C12.3722 8.20974 12.3777 8.21663 12.3825 8.22393L14.493 11.0745V8.33802C14.493 8.22474 14.5852 8.13254 14.6988 8.13254ZM8.87283 11.9962H6.90995V8.33841C6.90995 8.22474 6.82012 8.13254 6.70956 8.13254H5.98696C5.8762 8.13254 5.78637 8.22474 5.78637 8.33841V12.9435V12.9439C5.78637 12.9992 5.80789 13.0493 5.84244 13.0862C5.84323 13.0872 5.84402 13.0882 5.8452 13.0892L5.84816 13.092C5.88429 13.1277 5.93286 13.1496 5.98676 13.1496H8.87283C8.98359 13.1496 9.07302 13.0572 9.07302 12.9435V12.2021C9.07302 12.0884 8.98359 11.9962 8.87283 11.9962ZM19.4807 9.08006C19.4807 9.19394 19.3913 9.28594 19.2805 9.28594H17.3178V10.0643H19.2805C19.3913 10.0643 19.4807 10.1567 19.4807 10.2703V11.0118C19.4807 11.1255 19.3913 11.2177 19.2805 11.2177H17.3178V11.9962H19.2805C19.3913 11.9962 19.4807 12.0886 19.4807 12.2021V12.9437C19.4807 13.0572 19.3913 13.1496 19.2805 13.1496H16.3942C16.3405 13.1496 16.2918 13.1275 16.2558 13.092C16.2549 13.0912 16.2537 13.0902 16.2529 13.0892C16.2519 13.0884 16.2509 13.0872 16.2501 13.0862C16.2156 13.0493 16.1941 12.9992 16.1941 12.9439V12.9437V8.33862V8.33841C16.1941 8.2833 16.2154 8.23345 16.2497 8.19657L16.2529 8.19292C16.2535 8.19211 16.2545 8.1915 16.2553 8.19069C16.2914 8.15483 16.3402 8.13254 16.3942 8.13254H16.3946H19.2805C19.3913 8.13254 19.4807 8.22494 19.4807 8.33862V9.08006Z" fill="white"/>
</svg>
